<?xml version="1.0" encoding="UTF-8"?><svg xmlns="http://www.w3.org/2000/svg" viewBox="0 0 446.84 281.47"><defs><style>.c,.d{fill:#fff;}.e{fill:#1f5473;font-family:ProximaNova-Semibold, Proxima Nova;font-size:72px;font-weight:700;}.d,.f{stroke:#1f5473;stroke-miterlimit:10;}.f{fill:#f4a234;}.g{letter-spacing:0em;}</style></defs><g id="a"/><g id="b"><path class="d" d="M368.72,122.75c.2,3.61-2.39,6.28-6,10-9.52,9.8-21.63,12.41-57,17-18.31,2.37-27.46,3.56-34,4-17.39,1.17-24.61,.34-49.94,0-36.69-.5-34.42,1.06-58.06,0-18.5-.83-5.2-1.13-51-6-2-.21-14.95-1.59-29-9-11.61-6.12-11.98-10.04-12-11-.08-3.04,2.45-7.02,15-13,16.71-7.97,31.72-10.22,47-12,38.96-4.55,32.96-.61,47-4,6.39-1.54,21.45-5.69,39.93-1.99h0c8.12,.02,20.28,.03,35.06,0,40.52-.09,39.77-.4,45,0,28.94,2.19,67.26,12.61,68,26Z"/><path class="f" d="M261.72,69.75c10.24,6.54,24.38,20.98,21,32-4.5,14.67-37.64,15.44-62,16-19.16,.44-53,1.22-58-13-2.39-6.79,2.76-14.28,6-19,13.81-20.1,40.97-22.16,52-23,12.37-.94,26.85-2.04,41,7Z"/><path class="c" d="M176.22,100.25c.83-2.67,2.41-6.56,5.5-10.5,4.6-5.87,10.08-8.73,13-10,0,0,5-1,6,2-1.83,2-4.13,4.97-6,9-1.3,2.8-.35,7.75-2.5,7.5-5.29-.61-10.61-.35-16,2Z"/><text class="e" transform="translate(67.86 213.62)"><tspan class="g" x="0" y="0">C</tspan><tspan x="48.74" y="0">ANTINA</tspan></text></g></svg>