<?xml version="1.0" encoding="UTF-8"?><svg xmlns="http://www.w3.org/2000/svg" viewBox="0 0 447 281"><defs><style>.d,.e{fill:#fff;}.f,.g{fill:#1f5473;}.g{font-family:ProximaNova-Semibold, Proxima Nova;font-size:72px;font-weight:700;}.e,.h{stroke:#1f5473;stroke-miterlimit:10;}.h{fill:#f4a234;}.i{letter-spacing:0em;}</style></defs><g id="a"><path class="e" d="M354.5,124.5c.2,3.61-2.39,6.28-6,10-9.52,9.8-21.63,12.41-57,17-18.31,2.37-27.46,3.56-34,4-17.39,1.17-24.61,.34-49.94,0-36.69-.5-34.42,1.06-58.06,0-18.5-.83-5.2-1.13-51-6-2-.21-14.95-1.59-29-9-11.61-6.12-11.98-10.04-12-11-.08-3.04,2.45-7.02,15-13,16.71-7.97,31.72-10.22,47-12,38.96-4.55,32.96-.61,47-4,6.39-1.54,21.45-5.69,39.93-1.99h0c8.12,.02,20.28,.03,35.06,0,40.52-.09,39.77-.4,45,0,28.94,2.19,67.26,12.61,68,26Z"/><path class="h" d="M247.5,71.5c10.24,6.54,24.38,20.98,21,32-4.5,14.67-37.64,15.44-62,16-19.16,.44-53,1.22-58-13-2.39-6.79,2.76-14.28,6-19,13.81-20.1,40.97-22.16,52-23,12.37-.94,26.85-2.04,41,7Z"/><path class="d" d="M162,102c.83-2.67,2.41-6.56,5.5-10.5,4.6-5.87,10.08-8.73,13-10,0,0,5-1,6,2-1.83,2-4.13,4.97-6,9-1.3,2.8-.35,7.75-2.5,7.5-5.29-.61-10.61-.35-16,2Z"/><text class="g" transform="translate(53.72 215.37)"><tspan class="i" x="0" y="0">C</tspan><tspan x="48.74" y="0">ANT NA</tspan></text><g id="b"><polygon class="f" points="244.8 215.99 242.8 215.79 247.2 156.02 249.2 156.22 244.8 215.99"/><polygon class="f" points="257.71 215.85 255.71 216.01 252.29 156.16 254.29 156 257.71 215.85"/><rect class="f" x="249.91" y="158.98" width="1.18" height="7" transform="translate(412.98 -88.02) rotate(90)"/><rect class="f" x="249.91" y="204.03" width="1.18" height="11" transform="translate(460.03 -40.97) rotate(90)"/><rect class="f" x="249.41" y="196.3" width="1.18" height="10" transform="translate(451.3 -48.7) rotate(90)"/><rect class="f" x="249.91" y="188.56" width="1.18" height="9" transform="translate(443.56 -57.44) rotate(90)"/><rect class="f" x="249.91" y="180.33" width="1.18" height="9" transform="translate(435.33 -65.67) rotate(90)"/><rect class="f" x="249.91" y="172.1" width="1.18" height="9" transform="translate(427.1 -73.9) rotate(90)"/><rect class="f" x="250.41" y="165.54" width="1.18" height="8" transform="translate(420.54 -81.46) rotate(90)"/></g></g><g id="c"/></svg>