<?xml version="1.0" encoding="UTF-8"?><svg xmlns="http://www.w3.org/2000/svg" viewBox="0 0 446.84 281.47"><defs><style>.d{fill:#f7f8f9;}.e,.f{fill:#fff;}.f,.g{stroke:#1f5473;stroke-miterlimit:10;}.g{fill:#f4a234;}</style></defs><g id="a"/><g id="b"><path class="f" d="M369.4,122.75c.2,3.61-2.39,6.28-6,10-9.52,9.8-21.63,12.41-57,17-18.31,2.37-27.46,3.56-34,4-17.39,1.17-24.61,.34-49.94,0-36.69-.5-34.42,1.06-58.06,0-18.5-.83-5.2-1.13-51-6-2-.21-14.95-1.59-29-9-11.61-6.12-11.98-10.04-12-11-.08-3.04,2.45-7.02,15-13,16.71-7.97,31.72-10.22,47-12,38.96-4.55,32.96-.61,47-4,6.39-1.54,21.45-5.69,39.93-1.99h0c8.12,.02,20.28,.03,35.06,0,40.52-.09,39.77-.4,45,0,28.94,2.19,67.26,12.61,68,26Z"/><path class="g" d="M262.4,69.75c10.24,6.54,24.38,20.98,21,32-4.5,14.67-37.64,15.44-62,16-19.16,.44-53,1.22-58-13-2.39-6.79,2.76-14.28,6-19,13.81-20.1,40.97-22.16,52-23,12.37-.94,26.85-2.04,41,7Z"/><path class="e" d="M176.9,100.25c.83-2.67,2.41-6.56,5.5-10.5,4.6-5.87,10.08-8.73,13-10,0,0,5-1,6,2-1.83,2-4.13,4.97-6,9-1.3,2.8-.35,7.75-2.5,7.5-5.29-.61-10.61-.35-16,2Z"/><g><path class="e" d="M71.57,189.64c0-14.76,11.02-24.84,24.84-24.84,10.08,0,16.06,5.04,19.66,10.8l-7.2,3.67c-2.3-3.96-6.91-6.99-12.46-6.99-9.15,0-16.2,7.27-16.2,17.35s7.06,17.35,16.2,17.35c5.54,0,10.15-2.95,12.46-6.98l7.2,3.67c-3.67,5.76-9.58,10.8-19.66,10.8-13.83,0-24.84-10.08-24.84-24.84Z"/><path class="e" d="M152.94,204.41h-22.75l-3.53,9.22h-9.22l18.87-48.03h10.51l18.87,48.03h-9.22l-3.53-9.22Zm-20.38-7.42h18l-9-24.27-9,24.27Z"/><path class="e" d="M179.36,178.63v35h-8.42v-48.03h8.64l24.55,34.06v-34.06h8.42v48.03h-8.14l-25.06-35Z"/><path class="e" d="M234.22,173.01h-14.55v-7.42h37.52v7.42h-14.54v40.61h-8.42v-40.61Z"/><path class="e" d="M291.24,178.63v35h-8.42v-48.03h8.64l24.55,34.06v-34.06h8.42v48.03h-8.14l-25.06-35Z"/><path class="e" d="M365.12,204.41h-22.75l-3.53,9.22h-9.22l18.87-48.03h10.51l18.87,48.03h-9.22l-3.53-9.22Zm-20.38-7.42h18l-9-24.27-9,24.27Z"/></g><g id="c"><polygon class="d" points="259.7 214.24 257.71 214.04 262.11 154.28 264.1 154.48 259.7 214.24"/><polygon class="d" points="272.61 214.11 270.61 214.26 267.2 154.41 269.19 154.25 272.61 214.11"/><rect class="d" x="264.81" y="157.24" width="1.18" height="7" transform="translate(426.14 -104.67) rotate(90)"/><rect class="d" x="264.81" y="202.28" width="1.18" height="11" transform="translate(473.19 -57.62) rotate(90)"/><rect class="d" x="264.31" y="194.55" width="1.18" height="10" transform="translate(464.45 -65.35) rotate(90)"/><rect class="d" x="264.81" y="186.82" width="1.18" height="9" transform="translate(456.72 -74.09) rotate(90)"/><rect class="d" x="264.81" y="178.58" width="1.18" height="9" transform="translate(448.49 -82.32) rotate(90)"/><rect class="d" x="264.81" y="170.35" width="1.18" height="9" transform="translate(440.25 -90.55) rotate(90)"/><rect class="d" x="265.31" y="163.79" width="1.18" height="8" transform="translate(433.7 -98.11) rotate(90)"/></g></g></svg>