<svg xmlns="http://www.w3.org/2000/svg" xmlns:xlink="http://www.w3.org/1999/xlink" width="133" height="137" viewBox="0 0 133 137">
  <defs>
    <clipPath id="clip-Person">
      <rect width="133" height="137"/>
    </clipPath>
  </defs>
  <g id="Person" clip-path="url(#clip-Person)">
    <g id="Group_227" data-name="Group 227" transform="translate(-60 -44)">
      <g id="Group_220" data-name="Group 220" transform="translate(5774 4217)">
        <g id="Path_17" data-name="Path 17" transform="translate(-5711 -4168)" fill="#1f5473">
          <path d="M 64 123 C 56.03285598754883 123 48.30666732788086 121.4407501220703 41.03606414794922 118.3655395507812 C 37.54114532470703 116.8873138427734 34.16991806030273 115.0574188232422 31.01602172851562 112.9266891479492 C 27.89079093933105 110.8153305053711 24.95181274414062 108.3904190063477 22.28070831298828 105.7192916870117 C 19.60958290100098 103.0481872558594 17.18466758728027 100.1092071533203 15.07331275939941 96.98397827148438 C 12.94258308410645 93.83008575439453 11.11268711090088 90.45885467529297 9.634458541870117 86.96393585205078 C 6.559249877929688 79.69333648681641 5 71.96714782714844 5 64 C 5 56.03285598754883 6.559249877929688 48.30666732788086 9.634458541870117 41.03606414794922 C 11.11268711090088 37.54114532470703 12.94258308410645 34.16991806030273 15.07331275939941 31.01602172851562 C 17.18466758728027 27.89079093933105 19.60958290100098 24.95181274414062 22.28070831298828 22.28070831298828 C 24.95181274414062 19.60958290100098 27.89079093933105 17.18466758728027 31.01602172851562 15.07331275939941 C 34.16991806030273 12.94258308410645 37.54114532470703 11.11268711090088 41.03606414794922 9.634458541870117 C 48.30666732788086 6.559249877929688 56.03285598754883 5 64 5 C 71.96714782714844 5 79.69333648681641 6.559249877929688 86.96393585205078 9.634458541870117 C 90.45885467529297 11.11268711090088 93.83008575439453 12.94258308410645 96.98397827148438 15.07331275939941 C 100.1092071533203 17.18466758728027 103.0481872558594 19.60958290100098 105.7192916870117 22.28070831298828 C 108.3904190063477 24.95181274414062 110.8153305053711 27.89079093933105 112.9266891479492 31.01602172851562 C 115.0574188232422 34.16991806030273 116.8873138427734 37.54114532470703 118.3655395507812 41.03606414794922 C 121.4407501220703 48.30666732788086 123 56.03285598754883 123 64 C 123 71.96714782714844 121.4407501220703 79.69333648681641 118.3655395507812 86.96393585205078 C 116.8873138427734 90.45885467529297 115.0574188232422 93.83008575439453 112.9266891479492 96.98397827148438 C 110.8153305053711 100.1092071533203 108.3904190063477 103.0481872558594 105.7192916870117 105.7192916870117 C 103.0481872558594 108.3904190063477 100.1092071533203 110.8153305053711 96.98397827148438 112.9266891479492 C 93.83008575439453 115.0574188232422 90.45885467529297 116.8873138427734 86.96393585205078 118.3655395507812 C 79.69333648681641 121.4407501220703 71.96714782714844 123 64 123 Z" stroke="none"/>
          <path d="M 64 10 C 34.22428894042969 10 10 34.22428894042969 10 64 C 10 93.77571105957031 34.22428894042969 118 64 118 C 93.77571105957031 118 118 93.77571105957031 118 64 C 118 34.22428894042969 93.77571105957031 10 64 10 M 64 0 C 99.34620666503906 0 128 28.65378570556641 128 64 C 128 99.34620666503906 99.34620666503906 128 64 128 C 28.65378570556641 128 0 99.34620666503906 0 64 C 0 28.65378570556641 28.65378570556641 0 64 0 Z" stroke="none" fill="#1f5474"/>
        </g>
        <g id="Ellipse_6" data-name="Ellipse 6" transform="translate(-5702 -4159)" fill="#fff" stroke="#1f5473" stroke-width="1">
          <circle cx="55" cy="55" r="55" stroke="none"/>
          <circle cx="55" cy="55" r="54.5" fill="none"/>
        </g>
      </g>
    </g>
    <circle id="Ellipse_9" data-name="Ellipse 9" cx="21" cy="21" r="21" transform="translate(46 25)" fill="#f4a234"/>
    <ellipse id="Ellipse_10" data-name="Ellipse 10" cx="42.5" cy="24" rx="42.5" ry="24" transform="translate(24 75)" fill="#f4a234"/>
    <g id="Group_225" data-name="Group 225" transform="translate(-60 -44)">
      <g id="Group_220-2" data-name="Group 220" transform="translate(5774 4217)">
        <g id="Path_17-2" data-name="Path 17" transform="translate(-5711 -4168)" fill="none">
          <path d="M64,0A64,64,0,1,1,0,64,64,64,0,0,1,64,0Z" stroke="none"/>
          <path d="M 64 10 C 34.22428894042969 10 10 34.22428894042969 10 64 C 10 93.77571105957031 34.22428894042969 118 64 118 C 93.77571105957031 118 118 93.77571105957031 118 64 C 118 34.22428894042969 93.77571105957031 10 64 10 M 64 0 C 99.34620666503906 0 128 28.65378570556641 128 64 C 128 99.34620666503906 99.34620666503906 128 64 128 C 28.65378570556641 128 0 99.34620666503906 0 64 C 0 28.65378570556641 28.65378570556641 0 64 0 Z" stroke="none" fill="#1f5474"/>
        </g>
        <g id="Ellipse_6-2" data-name="Ellipse 6" transform="translate(-5702 -4159)" fill="none" stroke="#1f5473" stroke-width="1">
          <circle cx="55" cy="55" r="55" stroke="none"/>
          <circle cx="55" cy="55" r="54.5" fill="none"/>
        </g>
      </g>
    </g>
  </g>
</svg>
